<?xml version="1.0"?>
<svg xmlns="http://www.w3.org/2000/svg" viewBox="0 0 24 24" enable-background="new 0 0 24 24">
    <path fill="rgba(0, 209, 182, 1)" d="M 5 2 L 5 3 C 3.3545455 3 2 4.3545455 2 6 L 2 19 C 2 20.645455 3.3545455 22 5 22 L 19 22 C 20.645455 22 22 20.645455 22 19 L 22 6 C 22 4.3545455 20.645455 3 19 3 L 19 2 L 15 2 L 15 3 L 11 3 L 11 2 L 5 2 z M 5 5 L 19 5 C 19.554545 5 20 5.4454545 20 6 L 20 9 L 4 9 L 4 6 C 4 5.4454545 4.4454545 5 5 5 z M 7 6 C 6.4477153 6 6 6.4477153 6 7 C 6 7.5522847 6.4477153 8 7 8 C 7.5522847 8 8 7.5522847 8 7 C 8 6.4477153 7.5522847 6 7 6 z M 10 6 C 9.4477153 6 9 6.4477153 9 7 C 9 7.5522847 9.4477153 8 10 8 C 10.552285 8 11 7.5522847 11 7 C 11 6.4477153 10.552285 6 10 6 z M 13 6 C 12.447715 6 12 6.4477153 12 7 C 12 7.5522847 12.447715 8 13 8 C 13.552285 8 14 7.5522847 14 7 C 14 6.4477153 13.552285 6 13 6 z M 17 6 C 16.447715 6 16 6.4477153 16 7 C 16 7.5522847 16.447715 8 17 8 C 17.552285 8 18 7.5522847 18 7 C 18 6.4477153 17.552285 6 17 6 z M 4 11 L 20 11 L 20 19 C 20 19.554545 19.554545 20 19 20 L 5 20 C 4.4454545 20 4 19.554545 4 19 L 4 11 z M 6 13 L 6 18 L 18 18 L 18 13 L 6 13 z"/>
</svg>
