<?xml version="1.0" encoding="UTF-8" standalone="no"?>
<svg
   xmlns:dc="http://purl.org/dc/elements/1.1/"
   xmlns:cc="http://creativecommons.org/ns#"
   xmlns:rdf="http://www.w3.org/1999/02/22-rdf-syntax-ns#"
   xmlns:svg="http://www.w3.org/2000/svg"
   xmlns="http://www.w3.org/2000/svg"
   xmlns:sodipodi="http://sodipodi.sourceforge.net/DTD/sodipodi-0.dtd"
   xmlns:inkscape="http://www.inkscape.org/namespaces/inkscape"
   version="1.1"
   id="Calque_1"
   x="0px"
   y="0px"
   viewBox="0 0 901.30001 720.90001"
   xml:space="preserve"
   sodipodi:docname="jar_20x16.svg"
   width="901.29999"
   height="720.90002"
   inkscape:version="1.0.2 (e86c870879, 2021-01-15)"><metadata
   id="metadata19"><rdf:RDF><cc:Work
       rdf:about=""><dc:format>image/svg+xml</dc:format><dc:type
         rdf:resource="http://purl.org/dc/dcmitype/StillImage" /><dc:title></dc:title></cc:Work></rdf:RDF></metadata><defs
   id="defs17" /><sodipodi:namedview
   pagecolor="#000000"
   bordercolor="#666666"
   borderopacity="1"
   objecttolerance="10"
   gridtolerance="10"
   guidetolerance="10"
   inkscape:pageopacity="1"
   inkscape:pageshadow="2"
   inkscape:window-width="1920"
   inkscape:window-height="1046"
   id="namedview15"
   showgrid="false"
   fit-margin-top="32"
   fit-margin-left="180"
   fit-margin-right="180"
   fit-margin-bottom="32"
   inkscape:zoom="1.0096211"
   inkscape:cx="618.71117"
   inkscape:cy="280.89395"
   inkscape:window-x="0"
   inkscape:window-y="0"
   inkscape:window-maximized="1"
   inkscape:current-layer="Calque_1"
   inkscape:document-rotation="0" />
<style
   type="text/css"
   id="style2">
	.st0{fill:#000000;}
</style>
<g
   id="g12"
   transform="translate(152.3,-71.1)">
	<path
   class="st0"
   d="m 143.6,759.8 c -38.6,0 -77.2,0 -115.9,0 0,-218.8 0,-437.7 0,-656.5 44.4,0 88.9,0 133.3,0 -1.3,0.1 -2.6,0.4 -4,0.4 -21,0.2 -42,0.3 -63,0.5 -4.6,0.1 -9.2,0.2 -13.6,1.2 -21.9,4.9 -35.8,21.8 -36.1,44.1 -0.2,15 0,29.9 0,44.9 0.1,11.7 4.7,21.5 13.3,29.3 9.8,8.9 21.5,13.2 34.8,13.3 36.4,0.2 72.8,0.8 109.2,0.8 100.5,0 200.9,-0.3 301.4,-0.5 4,0 8.1,-0.1 12,-0.9 16.7,-3.4 29.1,-12.5 36.2,-28.3 1.1,-2.5 2.4,-5.2 2.4,-7.8 0.2,-19.8 0.1,-39.5 0.1,-59.3 0,-1.1 0,-2.3 -0.4,-3.3 -6.7,-16.9 -18.4,-28.5 -36.5,-32.1 -8.7,-1.7 -17.7,-1.2 -26.6,-1.6 -7.9,-0.3 -15.8,-0.4 -23.7,-0.6 34.2,0 68.3,0 102.5,0 0,218.8 0,437.7 0,656.5 -38.6,0 -77.3,0 -115.9,0 1.2,-0.5 2.4,-1 3.7,-1.4 17.4,-4.7 33.8,-11.5 47.6,-23.5 10.2,-8.9 20.2,-17.9 30.4,-26.8 12,-10.5 20.5,-23.5 26.7,-38 4.7,-10.9 7.4,-22.1 7.4,-34.3 -0.4,-76.6 -0.2,-153.2 -0.3,-229.8 0,-20.3 -0.1,-40.6 -0.5,-61 -0.1,-6.8 -0.4,-13.7 -2,-20.3 -5.5,-23.4 -20.2,-41.2 -36.1,-58.1 -1.7,-1.8 -3.7,-2.2 -6.1,-1.8 -4.7,0.8 -9.5,1.4 -14.2,1.9 -5.6,0.6 -11.1,0.9 -17.1,1.4 9.3,10.9 18.1,21.4 27,31.8 13,15.1 19.5,32.2 19.4,52.6 -0.2,64.9 0.6,129.7 0.6,194.6 0,30.3 -0.8,60.5 -1.3,90.8 -0.2,16.6 -7.3,30.5 -18.3,42.3 -13,14 -27.6,26.3 -43.2,37.5 -7.7,5.5 -16.1,9.7 -25.8,10.2 -10.8,0.5 -21.6,1.3 -32.4,1.3 -65,0.2 -130,0.4 -194.9,0.3 -24.6,0 -49.1,-0.8 -73.7,-1.3 -10.4,-0.2 -20,-3.2 -28.5,-9.3 -16.6,-12 -32.4,-25 -46.2,-40.1 -9.3,-10.1 -15.8,-22 -16.7,-36.1 -0.7,-11 -1.3,-22.1 -1.3,-33.1 0,-90.3 0.2,-180.6 0.4,-271 0,-1.2 0,-2.5 0.3,-3.6 3.7,-11.4 8.5,-22.3 16.4,-31.6 8.3,-9.7 16.6,-19.3 24.9,-29 1.7,-2 3.3,-4 5.3,-6.4 -1.6,-0.3 -2.6,-0.5 -3.6,-0.6 -9.6,-1 -19.3,-2.1 -28.9,-3 -1.2,-0.1 -2.7,0.4 -3.5,1.2 -3,2.7 -5.8,5.5 -8.5,8.5 -11.1,12.5 -21.2,25.7 -26.5,41.8 -2.2,6.6 -5.1,13.5 -5.2,20.3 -0.3,94.7 -0.1,189.4 0.1,284 0,10.9 0.4,21.9 1.7,32.7 1.9,15.4 9.5,28.5 18.9,40.4 12.7,16.2 28.9,28.8 44.6,41.9 11.5,9.5 24.2,16.8 38.6,20.8 3.8,1.1 7.5,2.4 11.3,3.7 z M 87.2,367.5 c 0,2.1 0,3.5 0,4.9 -0.1,45.4 -0.5,90.9 -0.4,136.3 0.1,42.7 0.8,85.5 1.2,128.2 0.1,8.2 3,15.5 8.5,21.3 13,13.6 27.3,25.7 42.6,36.6 4.6,3.3 9.7,4.7 15.6,4.7 95.7,-0.2 191.3,-0.2 287,0 7.1,0 13.2,-1.8 18.5,-6.1 9,-7.3 18,-14.6 26.8,-22.2 4.7,-4.1 9.3,-8.5 13.2,-13.3 6.1,-7.4 9.9,-15.7 9.4,-25.7 -0.4,-9.2 0,-18.5 0,-27.8 0,-77.4 -0.1,-154.7 -0.1,-232.1 0,-1.5 0,-3 0,-5 -5.2,1.3 -9.7,2.4 -14.2,3.5 -19.6,5.1 -39.1,9.6 -59.6,9.8 -23.7,0.2 -47.3,-0.8 -70.2,-7.6 -14.1,-4.2 -28.4,-8.1 -43.2,-8.2 -17.8,-0.2 -35.8,-0.9 -53.5,0.5 -12.3,0.9 -24.5,4.4 -36.6,7.6 -39.4,10.4 -78.9,11.3 -118.4,1 -8.7,-2.1 -17.3,-4.1 -26.6,-6.4 z"
   id="path4" />
	<path
   d="m 466.5,103.2 c 7.9,0.2 15.8,0.3 23.7,0.6 8.9,0.3 18,-0.1 26.6,1.6 18.1,3.5 29.8,15.1 36.5,32.1 0.4,1 0.4,2.2 0.4,3.3 0,19.8 0.1,39.5 -0.1,59.3 0,2.6 -1.3,5.3 -2.4,7.8 -7.1,15.8 -19.5,24.9 -36.2,28.3 -3.9,0.8 -8,0.9 -12,0.9 -100.5,0.2 -200.9,0.5 -301.4,0.5 -36.4,0 -72.8,-0.6 -109.2,-0.8 -13.3,-0.1 -25,-4.3 -34.8,-13.3 C 49,215.7 44.3,206 44.3,194.2 c -0.1,-15 -0.3,-29.9 0,-44.9 0.3,-22.3 14.2,-39.2 36.1,-44.1 4.4,-1 9.1,-1.2 13.6,-1.2 21,-0.3 42,-0.3 63,-0.5 1.3,0 2.6,-0.2 4,-0.4 101.9,0.1 203.7,0.1 305.5,0.1 z"
   id="path6"
   style="fill:#ffffff" />
	<path
   d="m 143.6,759.8 c -3.8,-1.2 -7.5,-2.6 -11.3,-3.6 -14.4,-4 -27.1,-11.3 -38.6,-20.8 C 78,722.4 61.8,709.7 49.1,693.5 39.7,681.6 32.1,668.4 30.2,653.1 28.9,642.3 28.5,631.3 28.5,620.4 28.3,525.7 28.2,431 28.4,336.4 c 0,-6.8 3,-13.6 5.2,-20.3 5.3,-16.1 15.4,-29.3 26.5,-41.8 2.7,-3 5.5,-5.8 8.5,-8.5 0.9,-0.8 2.4,-1.3 3.5,-1.2 9.6,0.9 19.3,2 28.9,3 1,0.1 1.9,0.3 3.6,0.6 -2,2.4 -3.6,4.5 -5.3,6.4 -8.3,9.7 -16.6,19.3 -24.9,29 -7.9,9.2 -12.6,20.2 -16.4,31.6 -0.4,1.1 -0.3,2.4 -0.3,3.6 -0.2,90.3 -0.3,180.6 -0.4,271 0,11 0.6,22.1 1.3,33.1 0.9,14.1 7.5,26 16.7,36.1 13.8,15.1 29.6,28.1 46.2,40.1 8.5,6.1 18.1,9.1 28.5,9.3 24.6,0.5 49.1,1.2 73.7,1.3 65,0.1 130,-0.1 194.9,-0.3 10.8,0 21.6,-0.8 32.4,-1.3 9.7,-0.5 18.1,-4.7 25.8,-10.2 15.6,-11.1 30.2,-23.5 43.2,-37.5 11,-11.8 18,-25.7 18.3,-42.3 0.5,-30.3 1.3,-60.5 1.3,-90.8 0,-64.9 -0.9,-129.7 -0.6,-194.6 0.1,-20.4 -6.4,-37.5 -19.4,-52.6 -8.9,-10.4 -17.8,-20.9 -27,-31.8 5.9,-0.5 11.5,-0.8 17.1,-1.4 4.8,-0.5 9.5,-1.1 14.2,-1.9 2.4,-0.4 4.4,-0.1 6.1,1.8 15.9,17 30.7,34.8 36.1,58.1 1.5,6.6 1.9,13.5 2,20.3 0.4,20.3 0.5,40.6 0.5,61 0.1,76.6 -0.1,153.2 0.3,229.8 0.1,12.2 -2.7,23.4 -7.4,34.3 -6.2,14.5 -14.6,27.5 -26.7,38 -10.2,8.9 -20.2,17.9 -30.4,26.8 -13.8,12 -30.2,18.8 -47.6,23.5 -1.3,0.3 -2.4,0.9 -3.7,1.4 -103.2,-0.2 -206.3,-0.2 -309.5,-0.2 z"
   id="path8"
   style="fill:#ffffff" />
	<path
   d="m 87.2,367.5 c 9.3,2.3 18,4.3 26.6,6.5 39.6,10.3 79,9.4 118.4,-1 12,-3.2 24.3,-6.7 36.6,-7.6 17.7,-1.3 35.7,-0.6 53.5,-0.5 14.9,0.2 29.1,4 43.2,8.2 23,6.8 46.5,7.7 70.2,7.6 20.4,-0.1 40,-4.7 59.6,-9.8 4.5,-1.2 9.1,-2.3 14.2,-3.5 0,2 0,3.5 0,5 0,77.4 0.1,154.7 0.1,232.1 0,9.3 -0.4,18.5 0,27.8 0.5,10 -3.3,18.3 -9.4,25.7 -4,4.8 -8.5,9.2 -13.2,13.3 -8.8,7.6 -17.8,14.9 -26.8,22.2 -5.4,4.3 -11.4,6.1 -18.5,6.1 -95.7,-0.2 -191.3,-0.2 -287,0 -5.9,0 -11,-1.4 -15.6,-4.7 C 123.8,684 109.5,671.9 96.5,658.3 91,652.6 88.1,645.2 88,637 87.6,594.3 86.9,551.5 86.8,508.8 86.7,463.4 87,417.9 87.2,372.5 c 0,-1.5 0,-2.9 0,-5 z"
   id="path10"
   style="fill:#ffffff" />
</g>
</svg>
