<?xml version="1.0" encoding="utf-8"?>
<!-- Generator: Adobe Illustrator 23.0.3, SVG Export Plug-In . SVG Version: 6.00 Build 0)  -->
<svg version="1.1"
	 id="svg2211" inkscape:output_extension="org.inkscape.output.svg.inkscape" inkscape:version="0.46" sodipodi:docname="Village Symbol Konohagakure.svg" sodipodi:version="0.32" xmlns:cc="http://creativecommons.org/ns#" xmlns:dc="http://purl.org/dc/elements/1.1/" xmlns:inkscape="http://www.inkscape.org/namespaces/inkscape" xmlns:rdf="http://www.w3.org/1999/02/22-rdf-syntax-ns#" xmlns:sodipodi="http://sodipodi.sourceforge.net/DTD/sodipodi-0.dtd" xmlns:svg="http://www.w3.org/2000/svg"
	 xmlns="http://www.w3.org/2000/svg" xmlns:xlink="http://www.w3.org/1999/xlink" x="0px" y="0px" viewBox="0 0 56.7 56.7"
	 style="enable-background:new 0 0 56.7 56.7;" xml:space="preserve">
<style type="text/css">
	.st0{fill:none;stroke:#ffffff;stroke-opacity:0.9;stroke-width:4;stroke-linecap:round;stroke-linejoin:round;}
</style>
<path id="path2399" sodipodi:nodetypes="cccccccccccc" class="st0" d="M38.8,28.3c0.8,0.4,1.7,0.8,1.4,3.4c-0.8,2.2-2.4,4.2-6.4,4
	c-3.2-0.8-6.7-1.7-6.4-8c0.3-3.3,3.7-7.8,9.6-7.9c8.5,0.1,12.6,7.6,12.2,13.3c-0.4,8.2-7,12.5-16,13.2c-4.8,0-10.5-2.6-13-6.6
	C17,35.6,15.7,27,18.4,21.4c2.9-6,8.2-9.8,14.6-9.9c5.9-0.1,9.8,2.1,12,3.5l5.2-5"/>
<path id="path2401" sodipodi:nodetypes="cccc" class="st0" d="M19.5,19.5c-3.1,4.9-5.2,11.2-7.3,15.1c-1.5,3.3-3.6,5.2-5.8,7.7
	c8.6,5,21.8,5.4,30.4,3.6"/>
</svg>
