<?xml version="1.0" encoding="utf-8"?>
<!-- Generator: Adobe Illustrator 23.0.3, SVG Export Plug-In . SVG Version: 6.00 Build 0)  -->
<svg version="1.1" id="Calque_1" xmlns="http://www.w3.org/2000/svg" xmlns:xlink="http://www.w3.org/1999/xlink" x="0px" y="0px"
	 viewBox="0 0 56.7 56.7" style="enable-background:new 0 0 56.7 56.7;" xml:space="preserve">
<style type="text/css">
	.st0{fill:none;stroke:#ffffff;stroke-width:4;stroke-miterlimit:10;}
</style>
<path class="st0" d="M19.5,31.8c-0.9,0-1.7,0-2.6,0c-0.3,0-0.6,0-0.9-0.1c-1.2-0.2-2.1-1.6-1-2.8c2.7-3.2,5.4-6.5,8.1-9.7
	c4-4.7,8-9.5,11.9-14.2c0-0.1,0.1-0.1,0.1-0.2c0.3-0.4,0.8-0.5,1.2-0.3c0.5,0.2,0.4,0.7,0.3,1.1c-1.3,4.9-2.5,9.8-3.8,14.7
	c-0.2,0.8-0.4,1.6-0.6,2.4c-0.3,1.3,0.4,2.3,1.7,2.4c0.9,0.1,1.9,0,2.8,0c1,0,2,0,3,0c0.4,0,0.8,0,1.1,0.2c1.2,0.4,1.5,1.7,0.7,2.7
	c-2,2.4-4,4.8-6.1,7.2c-4.7,5.6-9.3,11.1-14,16.7c-0.1,0.2-0.3,0.4-0.5,0.5c-0.3,0.1-0.8,0.1-1-0.1c-0.2-0.1-0.3-0.6-0.2-0.9
	c0.6-2.5,1.3-5,1.9-7.4c0.8-3.2,1.7-6.4,2.5-9.6c0.4-1.4-0.4-2.4-1.8-2.5c0,0-0.1,0-0.1,0C21.4,31.8,20.5,31.8,19.5,31.8z"/>
</svg>
