<?xml version="1.0" encoding="utf-8"?>
<!-- Generator: Adobe Illustrator 23.0.3, SVG Export Plug-In . SVG Version: 6.00 Build 0)  -->
<svg version="1.1" id="Calque_1" xmlns="http://www.w3.org/2000/svg" xmlns:xlink="http://www.w3.org/1999/xlink" x="0px" y="0px"
	 viewBox="0 0 56.7 56.7" style="enable-background:new 0 0 56.7 56.7;" xml:space="preserve">
<style type="text/css">
	.st0{fill:none;stroke:#ffffff;stroke-width:4;stroke-miterlimit:10;}
</style>
<path class="st0" d="M29.7,47.6c-0.4,0-0.7-0.1-1.2-0.1c-2.4-0.2-4.6-0.8-6.8-2.1c-4-2.1-6.9-5.2-8.8-9.3c-0.8-1.8-1.3-3.7-1.6-5.8
	C10.7,23.7,13,18,18.1,13.7c2.5-2.2,5.6-3.6,8.9-4.2c2.3-0.5,4.6-0.4,6.9,0c0.5,0.1,0.7,0.4,0.7,0.7c0.1,0.4-0.1,0.7-0.5,1
	c-1.9,1.1-3.6,2.7-4.8,4.5c-1.3,1.9-2.2,4.1-2.5,6.4c-0.6,3.9,0.2,7.5,2.5,10.7c2.3,3.4,5.6,5.4,9.5,6.3c1.8,0.4,3.7,0.4,5.6,0
	c0.4-0.1,0.7,0.1,1,0.5c0.2,0.4,0.1,0.7-0.1,1.1c-0.8,1-1.7,1.9-2.7,2.7c-2.3,1.9-5,3.3-8,3.9c-1.1,0.2-2.2,0.4-3.3,0.5
	c-0.1,0-0.1,0-0.2,0C30.7,47.6,30.3,47.6,29.7,47.6z"/>
</svg>
