<?xml version="1.0" encoding="utf-8"?>
<!-- Generator: Adobe Illustrator 23.0.3, SVG Export Plug-In . SVG Version: 6.00 Build 0)  -->
<svg version="1.1" id="Calque_1" xmlns="http://www.w3.org/2000/svg" xmlns:xlink="http://www.w3.org/1999/xlink" x="0px" y="0px"
	 viewBox="0 0 56.7 56.7" style="enable-background:new 0 0 56.7 56.7;" xml:space="preserve">
<style type="text/css">
	.st0{fill:none;stroke:#ffffff;stroke-width:4;stroke-miterlimit:10;}
</style>
<path class="st0" d="M19.3,35.8c0-9.2,0-18.3,0-27.6c9.5,0,19,0,28.5,0c0,0.3,0.1,0.5,0.1,0.8c0,9.7,0,19.4,0,29.1
	c0,4.3-3.1,7.3-7.2,7.1c-2.8-0.1-4.9-1.6-6-4.2c-1.1-2.6-0.7-5.1,1.1-7.3c1.8-2.1,4.2-2.9,7-2.2c0.6,0.2,1.2,0.5,1.8,0.9
	c0-5,0-9.9,0-14.9c-7.3,0-14.5,0-21.9,0c0,0.5,0,0.8,0,1.2c0,7.4,0,14.8,0,22.2c0,3.7-2,6.5-5.4,7.3c-2.7,0.6-5.7-0.5-7.3-2.8
	c-1.6-2.4-1.6-5.6,0-7.9c1.6-2.4,4.6-3.6,7.3-2.8C17.9,35,18.5,35.4,19.3,35.8z"/>
</svg>
