<?xml version="1.0" encoding="UTF-8" standalone="no"?>
<svg
   xmlns:dc="http://purl.org/dc/elements/1.1/"
   xmlns:cc="http://creativecommons.org/ns#"
   xmlns:rdf="http://www.w3.org/1999/02/22-rdf-syntax-ns#"
   xmlns:svg="http://www.w3.org/2000/svg"
   xmlns="http://www.w3.org/2000/svg"
   xmlns:sodipodi="http://sodipodi.sourceforge.net/DTD/sodipodi-0.dtd"
   xmlns:inkscape="http://www.inkscape.org/namespaces/inkscape"
   version="1.1"
   id="Calque_1"
   x="0px"
   y="0px"
   viewBox="0 0 411.11704 329.63476"
   xml:space="preserve"
   sodipodi:docname="server_20x16.svg"
   width="411.11703"
   height="329.63477"
   inkscape:version="1.0.2 (e86c870879, 2021-01-15)"><metadata
   id="metadata17"><rdf:RDF><cc:Work
       rdf:about=""><dc:format>image/svg+xml</dc:format><dc:type
         rdf:resource="http://purl.org/dc/dcmitype/StillImage" /><dc:title></dc:title></cc:Work></rdf:RDF></metadata><defs
   id="defs15" /><sodipodi:namedview
   pagecolor="#000000"
   bordercolor="#666666"
   borderopacity="1"
   objecttolerance="10"
   gridtolerance="10"
   guidetolerance="10"
   inkscape:pageopacity="1"
   inkscape:pageshadow="2"
   inkscape:window-width="1920"
   inkscape:window-height="1046"
   id="namedview13"
   showgrid="false"
   fit-margin-top="0"
   fit-margin-left="14"
   fit-margin-right="14"
   fit-margin-bottom="0"
   inkscape:zoom="1.0096211"
   inkscape:cx="140.96357"
   inkscape:cy="216.05969"
   inkscape:window-x="0"
   inkscape:window-y="0"
   inkscape:window-maximized="1"
   inkscape:current-layer="Calque_1" />
<g
   id="g10"
   transform="translate(-95.611108,-147.80969)">
	<path
   d="m 109.9,326 c 0,-2.4 0.2,-5.8 1.5,-9.8 2.4,-7.7 7,-12.5 9.6,-15.1 4.9,-4.9 11.1,-8.5 18.4,-10.7 2.1,-0.7 4.6,-0.4 6.9,-0.4 103.8,0 207.5,-0.1 311.3,0 15.2,0 24.9,9.5 32.3,22.1 1.8,3.1 2.8,6.6 2.7,10.2 -0.1,15.8 -0.6,31.6 0.1,47.3 0.8,17.7 -15.6,34.3 -29.8,36.3 -4.2,0.6 -8.5,0.7 -12.8,0.8 -1.1,0 -2.1,0.1 -3.3,0.1 -5,-0.1 -2.6,0 -8.6,0.1 -66.2,0 -132.6,0 -199.1,0 v 48.3 c 42.4,0 84.6,0 126.9,0 6.6,-0.1 4.8,0 9.7,0.1 0.5,0 0.3,0 1,0 1,0 0.9,0 1.7,0 0.6,0 0.7,0 1.6,0 1.1,0.1 0.5,0 1,0 0.4,0 0.6,0 0.9,0 0.3,0 0.3,0 0.7,0 0,0 0.5,0 0.5,0 0.2,0 0.4,0 0.7,0 0.5,0 0.9,0 0.9,0 2.4,0 3.8,0 6.2,0 26,0 51.9,0 77.9,0 8.4,0 13.1,5.8 11.6,13.9 -0.9,4.5 -5.3,8.1 -10.4,8.2 -4.7,0.1 -9.4,0 -14.1,0 -98.6,0 -197.3,0 -295.9,0 -7.2,0 -3.4,-0.1 -5,0 -1.9,-0.2 -0.7,-0.1 -2.5,-0.1 -1.8,-0.1 -0.9,-0.1 -1.4,-0.1 -1,0 -0.7,0 -1.4,0 -0.6,0.1 -0.5,0 -1,0 -0.6,0 -0.5,0.1 -1.2,0 -0.7,0.1 -0.4,-0.1 -1.2,0 -0.6,-0.1 -0.8,-0.1 -1.4,-0.1 -0.5,0.1 -0.3,0 -0.9,0 -1.5,0.1 -2.5,0.2 -3.4,0.2 -4.7,0 -9.4,0.1 -14.1,0 -6,-0.2 -10.6,-5 -10.6,-11 0,-6 4.4,-10.7 10.5,-11.1 1.4,-0.1 2.7,0 4.1,0 27.2,0 54.4,0 81.7,0 4.3,0 4.3,0 4.3,-4.3 0,-13.6 -0.1,-27.2 0.1,-40.8 0,-2.6 -0.8,-3.4 -3.4,-3.3 -21.6,0.1 -43.1,0.1 -64.7,0 -15,0 -25.8,-7.5 -33.7,-19.7 -3.1,-4.8 -4.8,-10.1 -4.5,-16 0.3,-5.5 4.1,-9.7 9.2,-10.2 6.5,-0.6 11.5,2.4 12.4,8.3 1,6.6 4.8,10.9 10.4,13.9 1.7,0.9 3.8,1.2 5.7,1.2 68.5,0.1 137,0.1 205.4,0.1 12.3,0 24.5,-0.1 36.8,0.1 3.6,0 4.2,-1.2 3.6,-6.7 -2.3,-19.9 -2.3,-40 0.1,-59.8 0.6,-5 -0.5,-5.9 -3.7,-5.9 -17.6,0.1 -35.2,0 -52.8,0 -62.7,0 -125.4,0 -188.2,-0.1 -7.9,0 -12.6,4.1 -16,10.4 -1.3,2.3 -1.6,4 -3,6.6 -2.3,4.7 -3.6,6.1 -12.5,5.9 -3.7,-1.2 -6.5,-4.8 -7.8,-8.9 z"
   id="path2"
   style="fill:#ffffff" />
	<path
   d="m 312.6,148.1 c 4.2,-0.6 8.6,-0.1 12.8,0 43.6,0 87.1,0.1 130.7,0 12.7,0 21.8,6.3 29.5,15.7 1.7,2 1.5,1.7 2.3,3.5 0.7,1.7 0,0 0.7,2.2 0.3,0.9 0.3,1 0.4,1.3 0.2,0.9 0.3,1.1 0.6,2 0.2,0.8 0.1,0.7 0.4,1.6 0.3,1.1 0.3,1.2 0.6,2 0.4,1.2 0.6,1.7 0.9,3.2 0.4,3.9 0.4,2.9 0.6,4.4 0.1,1.3 0.3,2.4 0.3,3.5 0,13.7 -0.3,27.4 0.1,41.1 0.4,14.7 -11.3,28.6 -22.7,33.1 -4.1,1.7 -8.8,2.7 -13.3,2.7 -102.9,0.1 -205.9,-0.1 -308.8,0.3 -16.4,0.1 -31.8,-12.5 -36.5,-26.4 -1.8,-5.1 -2.9,-10.9 1.4,-15.7 2.6,-2.9 6.1,-4.6 10.1,-3.7 4.5,1 8.2,3.5 8.9,8.5 1,7 5,11.5 11.1,14.3 1.5,0.7 3.4,0.9 5.2,0.9 13.6,0.1 27.2,0 40.8,0 65.7,0 131.4,0 197.1,0 1.2,0 2.3,0 3.5,0 4.2,0 4.2,0 4.2,-4.1 0,-20.3 0,-40.6 0,-60.9 0,-7.3 0,-7.3 -7.3,-7.3 -79.4,0 -158.7,0 -238.1,0 -9.6,0 -14.8,4.2 -16.1,13.7 -0.9,6.5 -6.9,10.6 -12.5,10 -5.6,-0.6 -9.6,-5.5 -9.5,-12 0.1,-13.6 10.2,-26.9 22.6,-31.2 4.7,-1.6 9.9,-2.6 14.9,-2.6 48.2,-0.2 96.3,-0.1 144.5,-0.1 3.6,0 7.3,0 11,0"
   id="path4"
   style="fill:#ffffff" />
	<path
   d="m 168.2,224 c -9.4,0 -17.9,-8.2 -17.5,-17.6 0.5,-11.1 7.8,-17.8 17.8,-17.5 10.7,0.2 17.1,7.1 17.3,17.3 0.1,10.2 -7.1,17.3 -17.6,17.8 z"
   id="path6"
   style="fill:#ffffff" />
	<path
   d="m 168.2,365.6 c -9.9,0.2 -17.5,-7.8 -17.5,-17.3 0,-9.9 7.8,-17.6 17.8,-17.4 9.7,0.2 17.4,7.6 17.3,17.6 -0.1,9.5 -7.5,17.4 -17.6,17.1 z"
   id="path8"
   style="fill:#ffffff" />
</g>
</svg>
