<?xml version="1.0" encoding="utf-8"?>
<!-- Generator: Adobe Illustrator 23.0.3, SVG Export Plug-In . SVG Version: 6.00 Build 0)  -->
<svg version="1.1" id="Calque_1" xmlns="http://www.w3.org/2000/svg" xmlns:xlink="http://www.w3.org/1999/xlink" x="0px" y="0px"
	 viewBox="0 0 56.7 56.7" style="enable-background:new 0 0 56.7 56.7;" xml:space="preserve">
<style type="text/css">
	.st0{fill:none;stroke:#ffffff;stroke-opacity:0.9;stroke-width:4;}
</style>
<path class="st0" d="M26.4,26.4c0.3-0.1,0.6-0.3,0.6-0.6c0.1-0.5-0.2-1-0.6-1.2c-0.6-0.4-1.4-0.4-2-0.1c-0.9,0.4-1.5,1.2-1.8,2
	c-0.4,1.1-0.2,2.4,0.4,3.4c0.7,1.2,2,2.1,3.4,2.4c1.6,0.4,3.4-0.1,4.8-1c1.6-1.1,2.7-2.9,3-4.8c0.3-2.1-0.3-4.4-1.6-6.1
	c-1.5-1.9-3.7-3.2-6.1-3.5c-2.6-0.3-5.4,0.5-7.5,2.1c-2.3,1.8-3.8,4.6-4.1,7.5c-0.3,3.2,0.7,6.4,2.7,8.9c2.2,2.7,5.5,4.3,8.9,4.7
	c3.7,0.3,7.4-0.9,10.3-3.3c3-2.5,4.9-6.3,5.2-10.3c0.3-4.2-1.2-8.4-3.9-11.6c-2.9-3.4-7.2-5.5-11.6-5.8c-4.7-0.3-9.4,1.3-13,4.4
	c-3.7,3.3-6,8-6.4,13c-0.3,5.2,1.5,10.5,5,14.4c3.6,4.1,8.9,6.6,14.4,6.9c5.7,0.3,11.5-1.7,15.8-5.5c4.5-4,7.2-9.8,7.5-15.8"/>
</svg>
