<svg version="1.1" viewBox="15 0 66.5 77.2" xmlns="http://www.w3.org/2000/svg">
 <g transform="translate(2.15,-6.8)" fill="rgba(0, 209, 182, 0.7)">
  <path d="m73.2 80.8h-14.2c-0.2-5.9-6.3-5.9-8.6-5.9h-8.6c-2.3 0-8.5 0-8.6 5.9h-14.2c-0.9 0-1.6 0.7-1.6 1.6s0.7 1.6 1.6 1.6h54.2c0.9 0 1.6-0.7 1.6-1.6s-0.7-1.6-1.6-1.6zm-31.4-2.8h8.6c4.9 0 5.5 1.2 5.5 2.8h-19.6c0-1.6 0.7-2.8 5.5-2.8z"/>
  <path d="m67.8 16.4-21.7-9.6-21.7 9.6v22.3l21.7 11 21.7-11zm-5.2 1.1-16.4 8.5-16.5-8.5 16.5-7.3zm-35 2.5 17 8.8v16.6l-17-8.6zm20.1 25.4v-16.6l17-8.8v16.8z"/>
  <path d="m42.2 30.4c-0.3-0.8-1.3-1.2-2-0.8l-9.5 4c-0.8 0.3-1.2 1.3-0.8 2 0.3 0.6 0.8 1 1.4 1 0.2 0 0.4 0 0.6-0.1l9.5-4c0.8-0.4 1.2-1.3 0.8-2.1z"/>
  <path d="m61.5 33.6-9.5-4c-0.8-0.3-1.7 0-2 0.8s0 1.7 0.8 2l9.5 4c0.2 0.1 0.4 0.1 0.6 0.1 0.6 0 1.2-0.4 1.4-1 0.4-0.6 0-1.6-0.8-1.9z"/>
  <path d="m47.6 66.2c0-0.9-0.7-1.6-1.6-1.6s-1.6 0.7-1.6 1.6v0.1c0 0.9 0.7 1.6 1.6 1.6s1.6-0.7 1.6-1.6z"/>
  <path d="m46.1 58.3c-0.9 0-1.6 0.7-1.6 1.6v0.1c0 0.9 0.7 1.5 1.6 1.5s1.6-0.8 1.6-1.6-0.8-1.6-1.6-1.6z"/>
  <path d="m46.1 71c-0.9 0-1.6 0.7-1.6 1.6v0.1c0 0.9 0.7 1.5 1.6 1.5s1.6-0.8 1.6-1.6-0.8-1.6-1.6-1.6z"/>
  <path d="m46.1 51.9c-0.9 0-1.6 0.7-1.6 1.6v0.1c0 0.9 0.7 1.5 1.6 1.5s1.6-0.7 1.6-1.6-0.8-1.6-1.6-1.6z"/>
  <path d="m62.9 50.1c0.2 0.1 0.5 0.2 0.7 0.2 0.6 0 1.1-0.3 1.4-0.8 0.4-0.8 0.2-1.7-0.6-2.1s-1.7-0.2-2.1 0.6-0.1 1.7 0.6 2.1z"/>
  <path d="m59.8 55.7c0.2 0.1 0.5 0.2 0.7 0.2 0.6 0 1.1-0.3 1.4-0.8 0.4-0.8 0.2-1.7-0.6-2.1s-1.7-0.2-2.1 0.6l-0.1 0.1c-0.4 0.6-0.1 1.5 0.7 2z"/>
  <path d="m53.5 66.8c0.2 0.1 0.5 0.2 0.7 0.2 0.6 0 1.1-0.3 1.4-0.8 0.4-0.8 0.2-1.7-0.6-2.1s-1.7-0.2-2.1 0.6l-0.1 0.1c-0.4 0.6-0.1 1.5 0.7 2z"/>
  <path d="m51.9 69.5c-0.7-0.4-1.7-0.2-2.1 0.6l-0.1 0.1c-0.4 0.8-0.1 1.7 0.6 2.1 0.2 0.1 0.5 0.2 0.7 0.2 0.6 0 1.1-0.3 1.4-0.8 0.5-0.8 0.3-1.8-0.5-2.2z"/>
  <path d="m56.6 61.2c0.2 0.1 0.5 0.2 0.7 0.2 0.6 0 1.1-0.3 1.4-0.8 0.4-0.8 0.2-1.7-0.6-2.1-0.7-0.4-1.7-0.2-2.1 0.6s-0.1 1.7 0.6 2.1z"/>
  <path d="m33.8 58.4c-0.8 0.4-1 1.4-0.6 2.1l0.1 0.1c0.3 0.5 0.8 0.8 1.3 0.8 0.3 0 0.5-0.1 0.8-0.2 0.8-0.4 1-1.4 0.6-2.2-0.5-0.7-1.4-1-2.2-0.6z"/>
  <path d="m40.1 69.5c-0.8 0.4-1 1.4-0.6 2.1l0.1 0.1c0.3 0.5 0.8 0.8 1.3 0.8 0.3 0 0.6-0.1 0.8-0.2 0.8-0.4 1-1.4 0.6-2.2-0.5-0.7-1.5-1-2.2-0.6z"/>
  <path d="m30.7 52.9c-0.8 0.4-1 1.4-0.6 2.1l0.1 0.1c0.3 0.5 0.8 0.8 1.3 0.8 0.3 0 0.6-0.1 0.8-0.2 0.8-0.4 1-1.4 0.6-2.2-0.5-0.8-1.5-1-2.2-0.6z"/>
  <path d="m27.5 47.3c-0.8 0.4-1 1.4-0.6 2.1l0.1 0.1c0.3 0.5 0.8 0.8 1.3 0.8 0.3 0 0.6-0.1 0.8-0.2 0.8-0.4 1-1.4 0.6-2.2-0.5-0.7-1.4-1-2.2-0.6z"/>
  <path d="m36.9 64c-0.8 0.4-1 1.4-0.6 2.1l0.1 0.1c0.3 0.5 0.8 0.8 1.3 0.8 0.3 0 0.6-0.1 0.8-0.2 0.8-0.4 1-1.4 0.6-2.2-0.5-0.8-1.4-1.1-2.2-0.6z"/>
 </g>
</svg>
