<?xml version="1.0" encoding="UTF-8" standalone="no"?>
<!-- Generator: Adobe Illustrator 21.0.0, SVG Export Plug-In . SVG Version: 6.00 Build 0)  -->

<svg
   xmlns:dc="http://purl.org/dc/elements/1.1/"
   xmlns:cc="http://creativecommons.org/ns#"
   xmlns:rdf="http://www.w3.org/1999/02/22-rdf-syntax-ns#"
   xmlns:svg="http://www.w3.org/2000/svg"
   xmlns="http://www.w3.org/2000/svg"
   xmlns:sodipodi="http://sodipodi.sourceforge.net/DTD/sodipodi-0.dtd"
   xmlns:inkscape="http://www.inkscape.org/namespaces/inkscape"
   version="1.1"
   id="Capa_1"
   x="0px"
   y="0px"
   viewBox="12 0 330 264"
   xml:space="preserve"
   width="330"
   height="241"
   sodipodi:docname="silicone.svg"
   inkscape:version="0.92.4 (5da689c313, 2019-01-14)"><metadata
   id="metadata17"><rdf:RDF><cc:Work
       rdf:about=""><dc:format>image/svg+xml</dc:format><dc:type
         rdf:resource="http://purl.org/dc/dcmitype/StillImage" /></cc:Work></rdf:RDF></metadata><defs
   id="defs15" /><sodipodi:namedview
   pagecolor="#ffffff"
   bordercolor="#666666"
   borderopacity="1"
   objecttolerance="10"
   gridtolerance="10"
   guidetolerance="10"
   inkscape:pageopacity="0"
   inkscape:pageshadow="2"
   inkscape:window-width="640"
   inkscape:window-height="480"
   id="namedview13"
   showgrid="false"
   inkscape:zoom="0.4609375"
   inkscape:cx="157.5"
   inkscape:cy="205.11017"
   inkscape:window-x="0"
   inkscape:window-y="0"
   inkscape:window-maximized="0"
   inkscape:current-layer="g10" />
<g
   id="g10"
   fill="rgb(255, 255, 255)"
   transform="translate(-98.5,-220.11017)">
	<path
   d="m 98.5,371.16017 c 0.167,49.599 40.653,89.95 90.252,89.95 H 335.03 c 49.877,0 93.131,-38.999 93.466,-89.063 l 0.004,-0.937 c 0,-83.262 -74.019,-151 -165,-151 -90.981,0 -165,67.738 -165,151.05 z m 300,-0.05 -0.002,0.731 c -0.22,32.681 -28.691,59.269 -63.468,59.269 H 188.752 c -33.112,0 -60.141,-26.938 -60.252,-60 0,-66.72 60.561,-121 135,-121 74.439,0 135,54.28 135,121 z"
   id="path2"
   inkscape:connector-curvature="0" />
	<path
   d="m 190.31918,322.12505 c 5.298,6.369 14.756,7.236 21.125,1.938 14.34,-11.93 33.524,-18.5 54.017,-18.5 20.5,0 39.68,6.576 54.008,18.516 6.364,5.303 15.823,4.443 21.126,-1.92 5.292,-6.351 4.458,-15.811 -1.92,-21.126 -19.709,-16.425 -45.71,-25.47 -73.214,-25.47 -27.488,0 -53.486,9.034 -73.204,25.438 -6.368,5.297 -7.236,14.755 -1.938,21.124 z"
   id="path4"
   inkscape:connector-curvature="0" />
	
	
</g>















</svg>
