<svg id="Calque_1" data-name="Calque 1" xmlns="http://www.w3.org/2000/svg" viewBox="0 0 525.63 381.98"><title>pyramid</title><path fill="rgb(255, 255, 255)" d="M29.73,349.79c.45-4.9,2.9-8.7,5.77-12.21q20.45-25,41-49.95l41.82-50.91q24.35-29.62,48.71-59.24t48.66-59.29l48.52-59c5.51-6.71,11-13.46,16.6-20.08a29.15,29.15,0,0,1,5.78-5.26c5.31-3.55,11.47-2.49,16.24,3,6.24,7.16,12.25,14.53,18.28,21.87q18.58,22.59,37.1,45.24,21.27,26,42.55,51.9,22.69,27.66,45.42,55.28,32,39,64.05,78.11c13,15.84,26,31.63,39,47.49a33.62,33.62,0,0,1,4.31,6.54c4,8.42,1.11,15.67-7.87,18.37-6.93,2.1-14.11,3.42-21.21,4.92-10.85,2.29-21.73,4.42-32.59,6.65q-26.43,5.43-52.85,10.89-37,7.57-74.06,15.11-28.07,5.73-56.1,11.53c-5,1-9.88,2.33-14.88,3-2.65.33-5.49-.34-8.18-.9-27.89-5.79-55.76-11.69-83.65-17.48q-36.09-7.5-72.21-14.83c-16.86-3.45-33.74-6.84-50.6-10.29-12-2.45-24-4.87-35.92-7.48-4.94-1.08-9.69-2.83-12.16-7.8A31,31,0,0,1,29.73,349.79Zm487.78-9.44L305.63,82.09V383.83Zm-240.2,42.89V85.63l-209,254.74Z" transform="translate(-29.73 -31.75)"/></svg>