<svg id="Calque_1" data-name="Calque 1" xmlns="http://www.w3.org/2000/svg" viewBox="0 0 553.4 553.4"><defs><style>.cls-1{fill:rgba(0, 0, 0, 0);}.cls-2{fill:rgb(255, 255, 255)}</style></defs><title>sun</title><path class="cls-1" d="M21.6,418V144.8H294.8a6.12,6.12,0,0,1-1.2.5c-11.1,2.5-18.5,11.3-18.6,22.7-.1,15.3-.2,30.6,0,45.9a23,23,0,1,0,46,.2c.2-15.5.2-30.9,0-46.4a22.82,22.82,0,0,0-15.4-21.6c-1.4-.5-2.9-.9-4.4-1.3H574.9V698.2H21.5V424.5l.6,1.8c2.6,10.7,11.3,17.9,22.4,18,15.5.2,30.9.2,46.4,0a23,23,0,0,0,0-46c-15.5-.2-30.9-.2-46.4,0a22.92,22.92,0,0,0-21.6,15.4C22.4,415.1,22,416.6,21.6,418Zm414.7,3.2A138.43,138.43,0,0,0,298.1,283c-76.2,0-138.1,61.9-138.2,138.1S222,559.5,298.2,559.4,436.3,497.4,436.3,421.2Zm92.1,23v.2c7.6,0,15.3.1,22.9,0,12.9-.2,23-10.2,23.1-22.7a22.88,22.88,0,0,0-22.6-23.4c-15.6-.3-31.3-.3-47,0-12.6.2-22.1,9.9-22.6,22.3a22.7,22.7,0,0,0,21,23.5C511.6,444.7,520.1,444.2,528.4,444.2ZM275.1,651.8h-.2c0,7.6-.1,15.1,0,22.7.2,13,10.2,23.1,22.8,23.2a22.87,22.87,0,0,0,23.2-22.8c.3-15.6.3-31.1,0-46.7a22.95,22.95,0,0,0-45.8-1.8C274.6,634.9,275.1,643.4,275.1,651.8ZM174.5,276.7c0-8-2.1-13.5-6.3-17.8-11.1-11.2-22.1-22.4-33.4-33.4A23,23,0,0,0,102,257.7c11.1,11.5,22.4,22.9,34,33.9,7.1,6.8,15.8,8.1,24.8,4.2S174.1,284.5,174.5,276.7Zm268,21c8.1,0,13.7-2.1,18.1-6.4q16.8-16.65,33.4-33.4a21.57,21.57,0,0,0,6.3-17.2c-.8-9.8-5.7-16.8-14.9-20.2s-17.5-1.3-24.6,5.5c-6.8,6.7-13.5,13.5-20.2,20.2-4.1,4.1-8.4,8.1-12.4,12.4-6.8,7.4-8.6,16-4.6,25.2C427.3,292.9,434.7,297.3,442.5,297.7Zm.4,247.1c-8.1.4-15.4,4.8-19.3,13.8s-2.5,17.8,4.4,25q16.5,17.1,33.5,33.6a23,23,0,0,0,32.4-32.6c-10.9-11.2-22.1-22.2-33.2-33.2C456.2,547,450.8,544.8,442.9,544.8ZM174.5,566.1c-.4-8.1-4.8-15.4-13.8-19.3s-17.8-2.5-25,4.4q-17.1,16.5-33.6,33.5A23,23,0,0,0,134.8,617C146,606.1,157,594.9,168,583.8,172.4,579.4,174.5,574,174.5,566.1Z" transform="translate(-21.5 -144.8)"/><path class="cls-2" d="M21.6,418c.4-1.5.8-2.9,1.3-4.4a22.78,22.78,0,0,1,21.6-15.4c15.5-.2,30.9-.2,46.4,0a23,23,0,0,1,0,46c-15.5.2-30.9.2-46.4,0-11.1-.1-19.7-7.3-22.4-18a12.66,12.66,0,0,0-.6-1.8C21.6,422.4,21.6,420.2,21.6,418Z" transform="translate(-21.5 -144.8)"/><path class="cls-2" d="M301.3,144.8c1.5.4,2.9.8,4.4,1.3a22.78,22.78,0,0,1,15.4,21.6c.2,15.5.2,30.9,0,46.4a23,23,0,1,1-46-.2c-.2-15.3-.1-30.6,0-45.9.1-11.4,7.5-20.2,18.6-22.7a6.12,6.12,0,0,0,1.2-.5Z" transform="translate(-21.5 -144.8)"/><path class="cls-2" d="M436.3,421.2c.1,76.2-61.8,138.2-138.1,138.3s-138.4-62-138.3-138.3a138.2,138.2,0,0,1,276.4,0Zm-230.4-.1c-.3,50.7,41.1,92.2,92.1,92.4,50.7.2,92.2-41.3,92.3-92.1s-40.9-91.8-91.9-92.2C247.7,328.7,206.1,370.1,205.9,421.1Z" transform="translate(-21.5 -144.8)"/><path class="cls-2" d="M528.4,444.2c-8.4,0-16.8.5-25.1-.1a22.64,22.64,0,0,1-21-23.5c.5-12.4,10-22.1,22.6-22.3,15.6-.3,31.3-.3,47,0a22.81,22.81,0,0,1,22.6,23.4c-.2,12.5-10.2,22.4-23.1,22.7-7.6.1-15.3,0-22.9,0C528.4,444.3,528.4,444.3,528.4,444.2Z" transform="translate(-21.5 -144.8)"/><path class="cls-2" d="M275.1,651.8c0-8.5-.5-17,.1-25.4a22.58,22.58,0,0,1,23.3-20.9A22.84,22.84,0,0,1,321,628.2c.3,15.6.3,31.1,0,46.7a22.87,22.87,0,0,1-23.2,22.8c-12.6-.1-22.6-10.2-22.8-23.2-.1-7.6,0-15.1,0-22.7Z" transform="translate(-21.5 -144.8)"/><path class="cls-2" d="M174.5,276.7c-.4,7.8-4.8,15.2-13.8,19.1s-17.7,2.6-24.8-4.2q-17.4-16.65-34-33.9a23,23,0,0,1,32.8-32.2c11.3,11,22.3,22.2,33.4,33.4C172.4,263.2,174.5,268.8,174.5,276.7Z" transform="translate(-21.5 -144.8)"/><path class="cls-2" d="M442.5,297.7c-7.8-.4-15.1-4.9-19-13.9-3.9-9.2-2.2-17.8,4.6-25.2,4-4.3,8.2-8.3,12.4-12.4,6.7-6.7,13.4-13.5,20.2-20.2,7-6.8,15.4-8.9,24.6-5.5s14.2,10.4,14.9,20.2a21.57,21.57,0,0,1-6.3,17.2c-11,11.2-22.2,22.3-33.4,33.4C456.1,295.7,450.6,297.8,442.5,297.7Z" transform="translate(-21.5 -144.8)"/><path class="cls-2" d="M442.9,544.8c7.9,0,13.3,2.2,17.7,6.5,11.1,11,22.2,22,33.2,33.2a23,23,0,0,1-32.4,32.6c-11.3-11-22.6-22.2-33.5-33.6-6.9-7.2-8.3-15.9-4.4-25C427.4,549.6,434.8,545.2,442.9,544.8Z" transform="translate(-21.5 -144.8)"/><path class="cls-2" d="M174.5,566.1c0,7.9-2.1,13.3-6.5,17.8-11,11.1-22,22.2-33.2,33.2a23,23,0,0,1-32.7-32.3q16.5-17.1,33.6-33.5c7.2-6.9,15.9-8.3,25-4.4C169.7,550.6,174.1,558,174.5,566.1Z" transform="translate(-21.5 -144.8)"/><path class="cls-1" d="M205.9,421.1c.3-51,41.8-92.4,92.4-92,51,.4,92,41.5,91.9,92.2-.1,50.9-41.6,92.3-92.3,92.1C247,513.3,205.6,471.8,205.9,421.1Z" transform="translate(-21.5 -144.8)"/></svg>